<?xml version="1.0" encoding="UTF-8" standalone="no"?>
<!-- Created with Inkscape (http://www.inkscape.org/) -->

<svg
   width="640mm"
   height="480mm"
   viewBox="0 0 640 480"
   version="1.1"
   id="svg23672"
   inkscape:version="1.2.1 (9c6d41e410, 2022-07-14)"
   sodipodi:docname="rocket.svg"
   xmlns:inkscape="http://www.inkscape.org/namespaces/inkscape"
   xmlns:sodipodi="http://sodipodi.sourceforge.net/DTD/sodipodi-0.dtd"
   xmlns="http://www.w3.org/2000/svg"
   xmlns:svg="http://www.w3.org/2000/svg">
  <sodipodi:namedview
     id="namedview23674"
     pagecolor="#ffffff"
     bordercolor="#000000"
     borderopacity="0.25"
     inkscape:showpageshadow="2"
     inkscape:pageopacity="0.0"
     inkscape:pagecheckerboard="0"
     inkscape:deskcolor="#d1d1d1"
     inkscape:document-units="mm"
     showgrid="false"
     inkscape:zoom="0.42"
     inkscape:cx="1213.0952"
     inkscape:cy="671.42857"
     inkscape:window-width="1920"
     inkscape:window-height="1017"
     inkscape:window-x="-8"
     inkscape:window-y="-8"
     inkscape:window-maximized="1"
     inkscape:current-layer="layer1" />
  <defs
     id="defs23669" />
  <g
     inkscape:label="Слой 1"
     inkscape:groupmode="layer"
     id="layer1">
    <path
       style="fill:#f10000;fill-opacity:0.72103;stroke:none;stroke-width:0.264583"
       d="m -84.217504,277.32645 30.66338,-50.7128 8.8452,43.04691 24.76659,-8.84526 -19.38557,30.67806 -3.90785,-11.63065 25.06246,138.3976 -86.068576,-72.92629 14.717246,14.5479 -86.093306,76.0688 c 27.37154,-47.21008 54.01986,-94.8372 82.355246,-141.47727 l -12.433926,17.98338 -31.0024,-23.33671 z"
       id="path25299"
       sodipodi:nodetypes="cccccccccccccc" />
    <ellipse
       style="fill:#666666;fill-opacity:0.957082;stroke:none;stroke-width:0.419689"
       id="path26805"
       cx="511.47095"
       cy="286.24323"
       rx="191.98265"
       ry="198.12712" />
    <path
       style="fill:#f10000;fill-opacity:1;stroke:#000000;stroke-width:0.168149"
       d="m 77.356672,291.46172 c 0,0 24.456468,-39.6809 37.630328,-49.5569 8.4288,-6.31876 16.86168,-5.75764 16.86168,-5.75764 0,0 -2.91362,10.57931 -5.34638,15.011 -3.26522,5.94817 -11.92655,16.45044 -11.92655,16.45044 l 13.77722,-1.64506 c 0,0 22.49942,-25.75397 34.95714,-37.4247 14.29216,-13.38927 24.97522,-22.33972 39.06975,-31.2558 5.02592,-3.17935 16.03917,-7.81395 16.03917,-7.81395 0,0 -2.02397,10.66266 -4.11262,15.6279 -6.62732,15.75478 -16.82253,29.79504 -26.32067,44.00488 -7.40478,11.07806 -31.25579,39.06974 -31.25579,39.06974 l 1.23378,15.01102 c 0,0 7.67014,-8.97216 12.9547,-12.95472 4.31297,-3.25034 14.39412,-6.37453 14.39412,-6.37453 0,0 0.0416,7.54798 -4.52387,16.86169 -6.65608,13.57853 -34.95714,42.9767 -34.95714,42.9767 l -12.33782,-9.66461 16.65606,-18.71236 -4.11261,-15.62789 -12.30835,7.14796 -3.52518,-2.21283 -5.14075,4.11259 -10.532,-9.00226 3.7462,-4.98059 -2.67319,-3.29008 4.52386,-11.92656 -15.62789,5.34638 -16.861684,16.86169 z"
       id="path27587"
       sodipodi:nodetypes="cscsccsscssccscscccccccccccccc" />
    <g
       id="g30627"
       transform="matrix(0.63552598,0,0,0.63552598,-325.37406,-131.01002)">
      <path
         style="fill:#ffff00;fill-opacity:0.957082;stroke:none;stroke-width:0.264583"
         id="path29139"
         d="m 310.42144,235.85192 c -4.07964,4.9216 -7.58505,10.28758 -11.22328,15.53615 -2.39792,3.58316 -5.22034,6.80467 -8.30935,9.80118 -1.81017,1.75594 -4.49823,4.2131 -6.55793,5.69389 -1.33991,0.96332 -2.77514,1.78657 -4.16272,2.67986 0,0 3.04901,1.96038 3.04901,1.96038 v 0 c 1.40935,-0.89604 2.87038,-1.71556 4.22804,-2.68812 2.05811,-1.47428 4.75647,-3.98597 6.56222,-5.73727 3.10621,-3.01254 5.97831,-6.21714 8.3584,-9.84608 3.62802,-5.23602 7.14505,-10.59954 11.42772,-15.33357 0,0 -3.37211,-2.06642 -3.37211,-2.06642 z" />
      <path
         style="fill:#ffff00;fill-opacity:0.957082;stroke:none;stroke-width:0.264583"
         id="path29141"
         d="m 312.11067,243.83453 c -0.35658,0.49344 -0.70019,0.99649 -1.06971,1.48032 -2.44279,3.19846 -5.11947,6.23448 -7.69644,9.32243 -5.40911,6.48168 -2.94092,3.50743 -8.40459,10.1388 -9.61115,11.83269 -7.76558,8.3799 -19.47325,17.97964 -1.80356,1.5112 -17.17509,16.2333 -18.97865,17.7445 l 2.29841,1.12417 0.57128,0.85692 c 1.30508,1.95762 15.39213,-15.30153 17.19684,-16.81103 12.0263,-9.46785 11.67765,-7.32171 21.38259,-19.09638 5.78134,-6.97876 11.80669,-13.74788 17.56418,-20.74219 z"
         sodipodi:nodetypes="cssccccscccc" />
      <path
         style="fill:#ffff00;fill-opacity:0.957082;stroke:none;stroke-width:0.264583"
         id="path29881"
         d="m 444.16384,478.69318 c -6.56643,3.75214 -12.83285,7.9937 -19.28415,11.93398 -2.16194,1.32046 -4.34721,2.60239 -6.52082,3.90361 -7.40301,4.22759 -14.63471,8.74451 -22.03355,12.97937 -2.65525,1.5198 -5.29021,3.08007 -8.00917,4.48268 -8.06757,4.16176 -10.97786,5.13882 -19.47667,8.63576 -13.9791,5.36342 -28.27586,10.03459 -42.90089,13.30574 -9.39482,2.10129 -13.80654,2.65115 -23.30492,4.1616 -16.41211,2.33606 -33.07025,2.15244 -49.35023,-1.04534 -2.25929,-0.44378 -4.48434,-1.04685 -6.72651,-1.5703 -4.65939,-1.48312 -5.4787,-1.54043 -9.6588,-3.57828 -0.15021,-0.0732 -0.20686,-0.264 -0.32784,-0.37928 -0.95443,-0.9094 -2.02866,-1.70055 -2.89648,-2.69295 -2.34562,-2.68235 -3.36303,-4.88403 -5.10474,-7.98328 -4.13063,-7.98435 -5.76762,-16.80424 -6.26234,-25.7125 -0.10788,-1.94273 -0.0896,-3.8904 -0.13441,-5.83562 0.0304,-11.09464 3.28404,-21.70197 6.59635,-32.17071 4.18834,-12.59435 10.20089,-24.43004 16.46348,-36.08994 4.2018,-8.08164 8.72824,-15.99176 13.90319,-23.49322 3.3259,-4.82111 5.04067,-6.99212 8.59008,-11.70308 10.14888,-13.12757 20.46919,-26.12006 30.64549,-39.22636 1.64217,-2.06237 3.27388,-4.13308 4.92649,-6.18707 4.19846,-5.21808 5.26748,-6.57201 9.78368,-11.55697 5.43418,-5.99818 11.15063,-11.69564 16.93162,-17.35532 8.89569,-8.25883 17.45649,-16.86618 25.97885,-25.50649 3.99489,-3.97746 7.98709,-7.95766 11.97401,-11.94271 2.25928,-2.39382 4.67995,-4.63338 6.93396,-7.02974 2.06201,-2.16297 4.18772,-4.26006 6.00049,-6.64074 0.68114,-1.10318 2.55516,-2.94684 2.38532,-4.34002 l -3.62976,-1.63861 v 0 c 0.0571,0.0291 0.15462,0.0255 0.17129,0.0874 0.20447,0.75918 -1.87164,3.26995 -2.2797,3.89794 -1.8051,2.36507 -3.89581,4.47934 -5.96239,6.61486 -2.26978,2.3743 -4.64579,4.64839 -6.90073,7.03906 -3.9578,3.99595 -7.8613,8.04415 -11.81637,12.0433 -8.4237,8.70673 -16.89537,17.36897 -25.75893,25.63286 -7.56873,7.47345 -15.15153,14.96857 -22.01895,23.10535 -1.61443,1.91283 -3.15182,3.88945 -4.71506,5.84435 -1.64679,2.05942 -3.27665,4.13232 -4.91498,6.19848 -10.17127,13.11439 -20.4249,26.16454 -30.69314,39.2031 -3.66029,4.8287 -5.20926,6.75928 -8.62683,11.70527 -5.18558,7.50469 -9.73581,15.41928 -13.95644,23.5009 -6.25548,11.68628 -12.22925,23.55503 -16.53553,36.12444 -3.34743,10.50197 -6.66683,21.1292 -6.65065,32.27514 0.0456,1.95374 0.0325,3.90975 0.13672,5.86124 0.47725,8.93598 1.9773,17.78941 6.12081,25.81327 1.63668,2.97892 2.79224,5.45074 4.9961,8.05892 4.76885,5.64375 12.2469,8.1438 19.07696,10.16701 2.22077,0.498 4.42568,1.07294 6.66231,1.49403 16.24711,3.05882 32.83752,3.18854 49.18702,0.7988 9.17681,-1.46706 14.26766,-2.13794 23.35019,-4.16341 14.64477,-3.26588 28.94793,-7.97425 42.94825,-13.3283 8.1519,-3.3279 11.84421,-4.62791 19.61238,-8.59287 2.7301,-1.39346 5.36971,-2.95789 8.0332,-4.4748 7.42058,-4.22616 14.67432,-8.7359 22.11329,-12.93029 2.19585,-1.2895 4.4038,-2.55865 6.58762,-3.8685 6.53838,-3.92176 12.8783,-8.1906 19.66198,-11.69209 l -3.32015,-2.13964 z"
         sodipodi:nodetypes="sscsscscscssscscccsccsscccccccsscccccssccscccscscscscsscsccs" />
      <path
         style="fill:#ffff00;fill-opacity:0.957082;stroke:none;stroke-width:0.264583"
         id="path29143"
         d="m 315.84667,248.26698 c -2.04494,3.1725 -4.64471,5.95079 -7.25342,8.66155 -3.61231,3.44423 -6.48512,7.49916 -9.2937,11.59471 0,0 3.22971,1.89886 3.22971,1.89886 v 0 c 2.81067,-4.07252 5.71535,-8.08283 9.31844,-11.50762 2.63361,-2.73196 5.24899,-5.52002 7.41701,-8.64462 0,0 -3.41804,-2.00288 -3.41804,-2.00288 z" />
      <path
         style="fill:#ffff00;fill-opacity:0.957082;stroke:none;stroke-width:0.264583"
         id="path29145"
         d="m 397.80736,302.60104 c -2.00581,3.23006 -4.64521,6.00369 -7.15783,8.83833 -2.21099,2.73055 -1.10667,1.38009 -3.31239,4.0518 0,0 3.26379,1.9571 3.26379,1.9571 v 0 c 2.19819,-2.67354 1.09336,-1.32887 3.31446,-4.03397 2.5426,-2.85472 5.1951,-5.64647 7.31983,-8.83621 0,0 -3.42786,-1.97705 -3.42786,-1.97705 z" />
      <path
         style="fill:#ffff00;fill-opacity:0.957082;stroke:none;stroke-width:0.264583"
         id="path29151"
         d="m 403.97866,306.24139 c -3.05393,3.16672 -6.1233,6.3163 -9.24256,9.41906 -3.69705,3.54145 -7.19531,7.27959 -10.80378,10.90843 -2.75744,2.68428 -5.53048,5.34874 -8.08347,8.23074 -2.18459,2.63774 -3.77849,5.70013 -5.64049,8.56533 -1.73572,2.73248 -3.51309,5.42142 -5.57708,7.91787 -1.15406,1.43666 -2.46404,2.74571 -3.41098,4.34215 -0.40304,0.67948 -1.04989,2.09114 -1.38938,2.80969 -0.88233,2.11371 -1.67206,4.27268 -2.62392,6.35617 -0.36113,0.79192 -0.16653,0.42672 -0.57143,1.10212 0,0 3.42437,1.98117 3.42437,1.98117 v 0 c 0.41715,-0.71903 0.22141,-0.33782 0.57931,-1.14771 0.92668,-2.09476 1.69688,-4.26045 2.57141,-6.37778 0.35676,-0.75906 0.93133,-2.03134 1.36403,-2.75159 0.94954,-1.58059 2.25726,-2.87983 3.40087,-4.3103 2.04714,-2.52507 3.82548,-5.23068 5.56959,-7.97165 1.85351,-2.84827 3.45075,-5.88669 5.61872,-8.51221 2.53703,-2.88263 5.29899,-5.5428 8.03267,-8.23666 3.5788,-3.6545 7.08773,-7.37677 10.78208,-10.91742 3.12833,-3.10775 6.20456,-6.26597 9.35292,-9.35276 0,0 -3.35288,-2.05465 -3.35288,-2.05465 z" />
      <path
         style="fill:#ffff00;fill-opacity:0.957082;stroke:none;stroke-width:0.264583"
         id="path29153"
         d="m 408.17376,312.06572 c -2.56574,2.89838 -5.06283,5.85962 -7.52427,8.84714 -1.68733,2.12248 -3.27245,4.32223 -4.83344,6.53822 -0.77187,1.14832 -1.77776,2.10476 -2.79937,3.02713 -1.06886,1.07746 -2.00382,2.26919 -3.0454,3.37129 -1.997,1.91712 -3.9456,3.87921 -5.97382,5.76411 -1.83327,1.72564 -3.71748,3.40323 -5.26547,5.39604 -0.9017,1.00335 -1.79859,2.01226 -2.5898,3.10663 0,0 3.40112,2.01081 3.40112,2.01081 v 0 c 0.79054,-1.08884 1.69354,-2.08603 2.57058,-3.10433 1.5177,-1.983 3.35619,-3.67525 5.18459,-5.3684 2.04735,-1.88237 3.99402,-3.86474 6.02975,-5.75897 1.04494,-1.0891 1.97218,-2.27886 3.05123,-3.33648 1.02759,-0.95707 2.05531,-1.92804 2.82868,-3.11105 1.5285,-2.22268 3.05626,-4.44748 4.73509,-6.56121 2.43946,-2.99506 4.94591,-5.94596 7.58981,-8.76237 0,0 -3.35928,-2.05856 -3.35928,-2.05856 z" />
      <path
         style="fill:#ffff00;fill-opacity:0.957082;stroke:none;stroke-width:0.264583"
         id="path30611"
         d="m 368.78879,253.70949 c -2.66769,3.46249 -5.8474,6.48705 -8.92675,9.57549 -4.12613,4.14688 -8.44093,8.09965 -12.6632,12.14772 -3.73049,3.51502 -7.43609,7.04586 -10.87408,10.85043 -3.30055,3.80794 -6.73418,7.49456 -10.2243,11.12832 -3.59381,3.79561 -7.49882,7.2752 -11.28072,10.87761 -3.5673,3.56653 -7.37714,6.87551 -11.24072,10.11406 -3.83693,3.33735 -7.56377,6.79845 -11.34366,10.19956 -3.47544,3.096 -6.64922,6.4906 -9.74588,9.95815 -2.994,3.36526 -6.00355,6.71708 -8.96646,10.10986 -3.05985,3.2217 -5.80303,6.67912 -8.3897,10.28451 -1.66865,2.42457 -3.57878,4.67908 -5.24364,7.10555 -0.87648,1.27743 -1.6832,2.60141 -2.53529,3.89522 -2.93761,3.99685 -5.47128,8.23288 -7.84344,12.58128 -1.87171,3.38632 -3.16417,7.03734 -4.67065,10.58868 -1.59268,3.42151 -3.33016,6.76301 -5.16213,10.06123 -1.20795,2.0247 -1.97843,4.25397 -2.87867,6.41818 -0.44992,0.43003 -0.1986,0.32055 -0.71479,0.40667 0,0 3.2879,2.22199 3.2879,2.22199 v 0 c 0.63323,-0.318 0.33292,-0.0981 0.86623,-0.70466 0.86909,-2.16334 1.60655,-4.39058 2.79217,-6.41482 1.82345,-3.31764 3.56516,-6.67221 5.17942,-10.09746 1.50241,-3.54094 2.7729,-7.18804 4.62442,-10.57272 2.34251,-4.35202 4.86367,-8.58417 7.81371,-12.55916 0.85693,-1.28357 1.66163,-2.60199 2.53705,-3.87302 1.66953,-2.42401 3.58037,-4.6803 5.2463,-7.1079 2.59416,-3.58278 5.31066,-7.05102 8.37289,-10.25293 2.96162,-3.39272 5.96162,-6.75187 8.96861,-10.10441 3.07205,-3.46808 6.24708,-6.84019 9.69897,-9.93714 3.77541,-3.39915 7.49755,-6.85869 11.3348,-10.18847 3.88091,-3.23053 7.6718,-6.57016 11.24926,-10.13714 3.7995,-3.59283 7.6821,-7.10377 11.29229,-10.89125 3.49191,-3.638 6.93827,-7.31962 10.23958,-11.13274 3.42646,-3.79987 7.13002,-7.31859 10.83882,-10.84001 4.22021,-4.05333 8.51016,-8.03449 12.66592,-12.15443 3.12123,-3.08975 6.29414,-6.14741 9.08989,-9.54199 0,0 -3.39415,-2.01426 -3.39415,-2.01426 z" />
      <path
         style="fill:#ffff00;fill-opacity:0.957082;stroke:none;stroke-width:0.264583"
         id="path30613"
         d="m 360.60398,250.60833 c -2.65861,2.96076 -5.65901,5.60548 -8.55371,8.33359 -3.79839,3.58241 -7.54584,7.21333 -11.23329,10.90889 -3.37814,3.24782 -6.39355,6.83985 -9.54021,10.30574 -3.52838,3.6545 -7.19434,7.17338 -10.82127,10.72941 -4.01251,4.08387 -7.96679,8.22465 -12.00619,12.28201 -4.85256,4.74337 -9.65832,9.53698 -14.57952,14.20939 -3.27784,3.0271 -6.5428,6.07613 -10.02112,8.87389 -2.64369,2.09635 -5.28896,4.19277 -7.88066,6.35352 -2.34797,1.93931 -4.14195,4.41388 -5.9539,6.83413 -1.71172,2.1734 -3.36708,4.38843 -5.02076,6.6058 -1.16201,1.67722 -2.4546,3.25813 -3.7018,4.87154 -0.28869,0.30265 -0.57737,0.60531 -0.86606,0.90797 0,0 3.33274,2.03295 3.33274,2.03295 v 0 c 0.30049,-0.3111 0.60099,-0.62217 0.90149,-0.93327 1.26402,-1.60327 2.53828,-3.20143 3.69271,-4.8868 1.65449,-2.2144 3.28866,-4.44373 4.99117,-6.62209 1.80206,-2.39395 3.60143,-4.82505 5.92712,-6.74675 2.57048,-2.1759 5.21171,-4.26553 7.84082,-6.36976 3.46835,-2.81612 6.72388,-5.87566 9.97053,-8.94223 4.89842,-4.6958 9.68166,-9.5104 14.55058,-14.23675 4.07474,-4.02799 8.06492,-8.13933 12.0618,-12.24426 3.63368,-3.56105 7.31803,-7.07308 10.84699,-10.73885 3.15576,-3.44911 6.16164,-7.03961 9.51997,-10.29814 3.68078,-3.69681 7.42908,-7.32255 11.23156,-10.89476 2.93077,-2.73276 5.92627,-5.41033 8.70479,-8.29755 0,0 -3.39378,-2.03762 -3.39378,-2.03762 z" />
      <path
         style="fill:#ffff00;fill-opacity:0.957082;stroke:none;stroke-width:0.264583"
         id="path30615"
         d="m 236.762,521.51655 c 1.14371,1.2731 2.25302,2.54921 3.59889,3.61294 2.26724,1.63769 4.80404,2.81501 7.32747,3.98412 -0.3733,-0.22138 1.82411,1.01743 1.36765,0.76385 -0.85553,-0.47529 -1.70203,-0.967 -2.56336,-1.43171 -0.30174,-0.1628 0.58655,0.35526 0.88404,0.52567 4.41915,2.53164 2.86854,1.76663 5.28425,2.91323 1.8326,1.07735 3.80901,1.78046 5.83093,2.4086 2.04657,0.63003 4.17047,0.91491 6.27934,1.24481 2.15366,0.39429 4.31207,0.76243 6.49647,0.92803 2.1186,0.10435 4.24045,0.12205 6.36128,0.12766 1.84927,-0.004 3.69858,0 5.54783,-0.006 2.14813,-0.009 4.29628,-0.006 6.44443,-0.005 0.93226,0.003 1.86452,0.003 2.79681,0.003 0,0 -3.18122,-2.31129 -3.18122,-2.31129 v 0 c -0.92927,1.8e-4 -1.85851,0.003 -2.78778,0.003 -2.15099,0 -4.30197,0.004 -6.45298,0 -1.84851,0 -3.69705,0.0122 -5.54559,0.006 -2.11365,-0.006 -4.2296,-0.007 -6.33941,-0.15058 -2.17567,-0.19616 -4.32961,-0.55099 -6.47679,-0.94998 -2.0937,-0.33814 -4.20397,-0.62421 -6.22921,-1.28069 -2.01181,-0.65569 -3.96447,-1.41214 -5.80816,-2.46185 -1.88412,-0.93173 -0.98664,-0.5167 1.44149,0.9388 0.29167,0.17484 -0.59295,-0.33322 -0.88588,-0.50594 -1.83723,-1.08336 -3.64009,-2.25509 -5.55283,-3.21122 -0.22803,-0.1017 -0.45557,-0.20452 -0.68409,-0.30512 -0.22878,-0.1007 -0.46034,-0.19513 -0.68781,-0.29879 -2.88693,-1.31551 4.00393,2.51381 1.41023,0.91318 -0.2054,-0.12673 -0.41108,-0.25302 -0.61663,-0.37954 -1.3628,-1.02965 -2.49503,-2.24168 -3.6161,-3.52684 0,0 -3.64327,-1.54795 -3.64327,-1.54795 z" />
    </g>
    <circle
       style="fill:#803300;fill-opacity:0.72103;stroke:none;stroke-width:0.264583"
       id="path48781"
       cx="2.3844845"
       cy="339.97354"
       r="30.663389" />
    <circle
       style="fill:#ffcc00;fill-opacity:0.72103;stroke:none;stroke-width:0.264583"
       id="path49581"
       cx="168.56808"
       cy="112.10394"
       r="38.329235" />
    <circle
       style="fill:#280b0b;fill-opacity:1;stroke:none;stroke-width:0.264583"
       id="path54107"
       cx="326.00446"
       cy="258.59872"
       r="45.042164" />
  </g>
</svg>
